<?xml version="1.0" standalone="no"?>
<!DOCTYPE svg PUBLIC "-//W3C//DTD SVG 20010904//EN"
 "http://www.w3.org/TR/2001/REC-SVG-20010904/DTD/svg10.dtd">
<svg version="1.0" xmlns="http://www.w3.org/2000/svg"
 width="700.000000pt" height="700.000000pt" viewBox="0 0 700.000000 700.000000"
 preserveAspectRatio="xMidYMid meet">
<metadata>
Created by potrace 1.14, written by Peter Selinger 2001-2017
</metadata>
<g transform="translate(0.000000,700.000000) scale(0.100000,-0.100000)"
fill="#000000" stroke="none">
<path d="M3458 5125 c-2 -2 -49 -6 -106 -9 -105 -6 -288 -29 -377 -46 -27 -6
-61 -13 -75 -15 -14 -3 -38 -8 -55 -10 -101 -18 -356 -98 -498 -157 -461 -189
-853 -471 -1198 -859 -35 -39 -69 -77 -74 -83 -17 -17 -179 -228 -198 -256 -9
-14 -34 -50 -56 -80 l-39 -55 -348 -1 c-311 0 -352 -2 -375 -17 -68 -45 -68
-150 2 -191 26 -15 64 -17 377 -18 l349 -1 29 -46 c44 -70 209 -287 278 -366
206 -236 424 -437 631 -581 39 -27 72 -52 73 -56 2 -4 8 -8 13 -8 4 0 39 -20
76 -44 181 -117 519 -270 713 -323 30 -9 78 -22 105 -30 125 -35 326 -74 450
-88 33 -4 74 -9 90 -11 193 -22 638 -22 777 1 13 2 52 7 88 10 110 11 122 13
220 30 52 9 107 18 122 21 16 2 56 11 90 19 35 8 77 16 93 19 51 9 314 85 425
123 295 100 609 243 855 388 135 80 394 260 472 330 6 5 37 33 69 60 169 145
359 355 477 526 91 132 92 152 2 279 -73 102 -111 151 -170 219 -65 74 -266
274 -324 322 -29 24 -59 49 -65 55 -27 25 -193 148 -273 202 -434 291 -1011
533 -1528 643 -33 7 -64 13 -70 15 -47 10 -249 45 -285 49 -25 3 -61 7 -80 10
-19 2 -63 7 -97 10 -34 3 -86 8 -115 11 -53 5 -465 13 -470 9z m507 -239 c35
-5 165 -19 183 -19 18 0 36 18 -658 -676 l-635 -636 -383 -1 -382 0 22 24 c13
13 315 316 673 673 l649 650 251 -5 c137 -3 264 -7 280 -10z m-1550 -683
l-647 -648 -349 -1 c-192 0 -349 4 -349 9 0 4 27 44 60 87 167 219 362 423
565 591 80 67 326 239 341 239 4 0 15 6 23 14 55 47 354 184 531 242 88 30
324 93 395 106 87 16 101 32 -570 -639z m2095 598 c25 -5 86 -20 135 -31 110
-26 363 -101 385 -115 7 -4 -1075 -1093 -1089 -1096 -12 -3 -761 -5 -761 -2 0
2 282 286 628 632 367 368 633 628 642 626 8 -2 35 -8 60 -14z m820 -261 c90
-36 450 -219 450 -230 0 -3 -169 -174 -375 -380 l-375 -375 -379 0 c-259 -1
-378 3 -373 10 10 17 987 994 994 994 4 1 30 -8 58 -19z m698 -387 c143 -105
157 -115 262 -204 136 -116 370 -359 370 -385 0 -6 -270 -9 -650 -9 -357 -1
-650 1 -650 4 0 8 615 620 623 621 5 0 25 -12 45 -27z m-4199 -1374 c302 -302
548 -549 545 -549 -10 0 -154 67 -197 92 -26 15 -50 28 -52 28 -8 0 -139 81
-238 147 -204 137 -475 388 -651 603 -43 52 -86 104 -95 115 -9 11 -31 41 -48
66 l-32 45 110 1 109 1 549 -549z m1208 -120 c367 -368 670 -671 672 -674 5
-6 -349 3 -388 9 -14 3 -60 8 -101 11 -41 4 -77 8 -80 10 -3 2 -26 6 -50 9
-25 3 -56 8 -70 11 -14 3 -41 8 -60 12 -19 4 -38 8 -42 9 -5 1 -17 2 -27 3
-12 0 -280 261 -650 632 -347 346 -631 632 -631 634 0 2 171 3 379 3 l380 0
668 -669z m1024 65 c332 -332 601 -605 599 -608 -5 -4 -209 -51 -265 -60 -81
-14 -225 -36 -270 -41 -27 -4 -63 -8 -78 -11 -25 -4 -85 53 -687 655 -363 363
-660 661 -660 664 0 2 171 4 379 4 l379 0 603 -603z m948 142 l462 -462 -143
-61 c-162 -69 -278 -114 -357 -137 l-55 -16 -563 563 c-309 309 -563 565 -563
569 0 3 170 6 378 6 l379 0 462 -462z m879 211 c138 -139 252 -258 252 -264 0
-7 -5 -13 -11 -13 -6 0 -17 -7 -25 -15 -23 -22 -291 -198 -361 -236 l-63 -34
-406 407 -407 406 384 0 384 1 253 -252z m763 224 c-31 -43 -130 -150 -231
-248 l-95 -93 -177 178 c-98 97 -178 180 -178 183 0 4 157 7 350 7 l350 0 -19
-27z"/>
</g>
</svg>
