<svg width="64" height="64" viewBox="0 0 64 64" fill="none" xmlns="http://www.w3.org/2000/svg">
<path fill-rule="evenodd" clip-rule="evenodd" d="M46.1866 8.58665C52.0412 10.2408 56.5972 14.8475 58.1866 20.72C59.5543 26.3442 57.6842 32.2627 53.3333 36.08L33.9466 55.2267C32.9097 56.243 31.2502 56.243 30.2133 55.2267L10.6666 36.08C6.31563 32.2627 4.44558 26.3442 5.81328 20.72C7.40264 14.8475 11.9587 10.2408 17.8133 8.58665C22.7351 7.2376 28.0052 8.31738 31.9999 11.4933C35.9947 8.31738 41.2648 7.2376 46.1866 8.58665ZM31.9999 49.6L49.6799 32.2666C52.5796 29.7224 53.7883 25.7555 52.7999 22.0266C51.6671 18.0168 48.5394 14.8791 44.5333 13.7333C40.5937 12.6949 36.4033 13.9274 33.6533 16.9333C32.6164 17.9497 30.9569 17.9497 29.9199 16.9333C27.8359 14.7203 24.9584 13.4255 21.9199 13.3333C21.0172 13.3476 20.1204 13.4821 19.2533 13.7333C15.2471 14.8791 12.1194 18.0168 10.9866 22.0266C10.0486 25.7965 11.3425 29.7713 14.3199 32.2666L31.9999 49.6Z" fill="#628c07"/>
</svg>
