
<svg width="843" height="573" viewBox="0 0 843 573" fill="none" xmlns="http://www.w3.org/2000/svg">
<g id="undraw_text 1" clip-path="url(#clip0_1_2)">
<g id="plant">
<path id="Vector" d="M756.019 559.405C737.118 573.021 712.625 573.705 688.949 572.032C685.643 571.799 682.36 571.525 679.108 571.23C679.088 571.225 679.062 571.227 679.042 571.221C678.886 571.207 678.729 571.192 678.58 571.183C677.909 571.12 677.237 571.057 676.572 570.994L676.729 571.294L677.222 572.224C677.045 571.913 676.868 571.608 676.691 571.297C676.639 571.203 676.58 571.11 676.528 571.017C670.395 560.343 664.312 549.278 662.76 537.091C661.156 524.44 665.664 510.116 676.797 503.899C678.258 503.086 679.804 502.438 681.408 501.968C682.073 501.765 682.748 501.601 683.431 501.456C687.606 500.529 691.954 500.731 696.025 502.04C700.097 503.35 703.746 505.721 706.598 508.909C709.45 512.097 711.401 515.986 712.251 520.178C713.102 524.37 712.82 528.713 711.435 532.76C720.874 523.081 719.114 507.379 715.858 494.256C712.595 481.133 708.646 466.531 715.281 454.744C718.97 448.184 725.456 444.113 732.736 442.474C732.959 442.425 733.182 442.377 733.406 442.336C742.079 440.579 751.095 442.159 758.655 446.76C772.573 455.531 779.722 472.161 782.043 488.452C785.781 514.667 777.508 543.923 756.019 559.405Z" fill="#3F5B4A"/>
<path id="Vector_2" d="M749.917 517.382C749.368 523.164 747.979 528.836 745.793 534.217C743.779 538.98 741.065 543.414 737.739 547.373C730.826 555.465 722.07 561.779 712.208 565.782C704.749 568.837 696.934 570.937 688.949 572.032C685.643 571.799 682.36 571.525 679.108 571.23C679.088 571.225 679.062 571.227 679.042 571.221C678.886 571.207 678.729 571.192 678.58 571.183C677.909 571.12 677.237 571.057 676.572 570.994L676.729 571.294L677.222 572.224C677.045 571.913 676.868 571.608 676.691 571.296C676.639 571.203 676.58 571.11 676.528 571.017C682.515 565.052 686.985 557.739 689.564 549.691C692.142 541.643 692.754 533.094 691.348 524.76C689.877 516.486 686.471 508.676 681.408 501.968C682.073 501.765 682.748 501.601 683.431 501.456C685.355 504.087 687.043 506.882 688.475 509.81C693.612 520.252 695.251 532.07 693.149 543.516C691.195 553.873 686.326 563.458 679.115 571.145C679.746 571.101 680.384 571.049 681.008 570.992C692.826 569.991 704.62 567.45 715.34 562.246C724.502 557.906 732.457 551.379 738.503 543.24C744.995 534.287 747.856 523.517 748.347 512.571C748.726 500.779 747.49 488.99 744.674 477.532C741.943 465.849 737.793 454.544 732.316 443.869C732.193 443.627 732.168 443.347 732.247 443.088C732.325 442.828 732.5 442.608 732.736 442.474C732.932 442.341 733.173 442.292 733.406 442.336C733.52 442.366 733.625 442.421 733.715 442.498C733.804 442.575 733.875 442.67 733.922 442.778C734.598 444.097 735.261 445.417 735.899 446.751C741.212 457.865 745.123 469.596 747.543 481.675C749.892 493.327 751.146 505.516 749.917 517.382Z" fill="white"/>
</g>
<g id="tertiaryText">
<path id="Vector_3" d="M35.1598 182.126C34.5971 182.125 34.0394 182.02 33.5153 181.815C32.6676 181.49 31.9391 180.914 31.4265 180.164C30.9139 179.415 30.6414 178.527 30.6453 177.619V130.586C30.6435 128.994 30.0103 127.468 28.8846 126.342C27.7589 125.216 26.2326 124.583 24.6406 124.581H15.0093C11.03 124.577 7.21487 122.994 4.40105 120.18C1.58722 117.366 0.00445986 113.551 0 109.572V15.0093C0.0044625 11.0299 1.58723 7.21487 4.40105 4.40105C7.21487 1.58723 11.03 0.00445985 15.0093 0H354.735C358.714 0.00446514 362.529 1.58723 365.343 4.40105C368.157 7.21487 369.739 11.0299 369.744 15.0093V109.572C369.739 113.551 368.157 117.366 365.343 120.18C362.529 122.994 358.714 124.577 354.735 124.581H92.515C91.6826 124.582 90.8595 124.756 90.0976 125.091C89.3358 125.426 88.6516 125.915 88.0885 126.528L38.4667 180.662C38.0476 181.122 37.5371 181.49 36.9677 181.743C36.3983 181.995 35.7825 182.125 35.1598 182.126V182.126ZM15.0093 2C11.5602 2.00389 8.25351 3.37577 5.81464 5.81464C3.37576 8.25351 2.0039 11.5602 2 15.0093V109.572C2.0039 113.021 3.37577 116.328 5.81464 118.766C8.25351 121.205 11.5602 122.577 15.0093 122.581H24.6406C26.7629 122.583 28.7976 123.428 30.2982 124.928C31.7989 126.429 32.6429 128.464 32.6453 130.586V177.619C32.6453 178.123 32.7976 178.616 33.0823 179.032C33.367 179.448 33.7707 179.768 34.2406 179.951C34.7105 180.134 35.2246 180.171 35.7157 180.056C36.2067 179.942 36.6517 179.682 36.9924 179.31L86.6143 125.177C87.365 124.36 88.2769 123.707 89.2926 123.26C90.3082 122.814 91.4055 122.582 92.515 122.581H354.735C358.184 122.577 361.49 121.205 363.929 118.766C366.368 116.328 367.74 113.021 367.744 109.572V15.0093C367.74 11.5602 366.368 8.25351 363.929 5.81464C361.49 3.37577 358.184 2.0039 354.735 2H15.0093Z" fill="#3F3D56" fill-opacity="0.53"/>
<path id="Vector_4" d="M36.8161 42.5901C44.0696 42.5901 49.9498 36.7099 49.9498 29.4564C49.9498 22.2028 44.0696 16.3227 36.8161 16.3227C29.5625 16.3227 23.6824 22.2028 23.6824 29.4564C23.6824 36.7099 29.5625 42.5901 36.8161 42.5901Z" fill="#83B4ED" fill-opacity="0.29"/>
<path id="Vector_5" d="M339.412 102.13H30.332C29.4114 102.131 28.4997 101.95 27.6489 101.599C26.7981 101.247 26.0249 100.731 25.3736 100.081C24.7222 99.4304 24.2055 98.6578 23.853 97.8074C23.5004 96.957 23.319 96.0455 23.319 95.1249C23.319 94.2043 23.5004 93.2928 23.853 92.4424C24.2055 91.592 24.7222 90.8195 25.3736 90.1689C26.0249 89.5184 26.7981 89.0026 27.6489 88.6511C28.4997 88.2995 29.4114 88.1192 30.332 88.1203H339.412C340.332 88.1192 341.244 88.2995 342.095 88.6511C342.946 89.0026 343.719 89.5184 344.37 90.1689C345.022 90.8195 345.538 91.592 345.891 92.4424C346.243 93.2928 346.425 94.2043 346.425 95.1249C346.425 96.0455 346.243 96.957 345.891 97.8074C345.538 98.6578 345.022 99.4304 344.37 100.081C343.719 100.731 342.946 101.247 342.095 101.599C341.244 101.95 340.332 102.131 339.412 102.13V102.13Z" fill="#83B4ED" fill-opacity="0.29"/>
<path id="Vector_6" d="M238.72 72.3598H30.332C29.4114 72.3609 28.4997 72.1805 27.6489 71.829C26.7981 71.4775 26.0249 70.9617 25.3736 70.3112C24.7222 69.6606 24.2055 68.8881 23.853 68.0377C23.5004 67.1873 23.319 66.2757 23.319 65.3552C23.319 64.4346 23.5004 63.5231 23.853 62.6727C24.2055 61.8223 24.7222 61.0497 25.3736 60.3992C26.0249 59.7486 26.7981 59.2328 27.6489 58.8813C28.4997 58.5298 29.4114 58.3494 30.332 58.3505H238.72C239.641 58.3494 240.552 58.5298 241.403 58.8813C242.254 59.2328 243.027 59.7486 243.679 60.3992C244.33 61.0497 244.847 61.8223 245.199 62.6727C245.552 63.5231 245.733 64.4346 245.733 65.3552C245.733 66.2757 245.552 67.1873 245.199 68.0377C244.847 68.8881 244.33 69.6606 243.679 70.3112C243.027 70.9617 242.254 71.4775 241.403 71.829C240.552 72.1805 239.641 72.3609 238.72 72.3598V72.3598Z" fill="#83B4ED" fill-opacity="0.29"/>
</g>
<g id="secondaryText">
<path id="Vector_7" d="M35.1598 515.722C34.5971 515.722 34.0394 515.616 33.5153 515.412C32.6677 515.086 31.9392 514.51 31.4266 513.761C30.914 513.011 30.6415 512.123 30.6453 511.215V464.182C30.6435 462.59 30.0103 461.064 28.8846 459.938C27.7589 458.812 26.2326 458.179 24.6406 458.177H15.0093C11.03 458.173 7.21488 456.59 4.40106 453.776C1.58724 450.962 0.00447044 447.147 0 443.168V348.606C0.0044625 344.626 1.58723 340.811 4.40105 337.997C7.21487 335.183 11.03 333.601 15.0093 333.596H354.735C358.714 333.601 362.529 335.183 365.343 337.997C368.157 340.811 369.739 344.626 369.744 348.606V443.168C369.739 447.147 368.157 450.962 365.343 453.776C362.529 456.59 358.714 458.173 354.735 458.177H92.515C91.6826 458.178 90.8595 458.352 90.0976 458.687C89.3358 459.022 88.6516 459.512 88.0885 460.125L38.4667 514.258C38.0476 514.718 37.5371 515.087 36.9677 515.339C36.3983 515.591 35.7825 515.722 35.1598 515.722V515.722ZM15.0093 335.596C11.5602 335.6 8.25351 336.972 5.81464 339.411C3.37576 341.85 2.00389 345.156 2 348.605V443.168C2.0039 446.617 3.37577 449.924 5.81464 452.363C8.25351 454.802 11.5602 456.173 15.0093 456.177H24.6406C26.7629 456.18 28.7976 457.024 30.2982 458.525C31.7989 460.025 32.6429 462.06 32.6453 464.182V511.215C32.6453 511.72 32.7976 512.212 33.0823 512.628C33.367 513.044 33.7707 513.365 34.2406 513.547C34.7105 513.73 35.2246 513.767 35.7157 513.652C36.2067 513.538 36.6517 513.278 36.9924 512.906L86.6143 458.773C87.365 457.956 88.2769 457.303 89.2926 456.857C90.3082 456.41 91.4055 456.179 92.515 456.177H354.735C358.184 456.173 361.49 454.802 363.929 452.363C366.368 449.924 367.74 446.617 367.744 443.168V348.606C367.74 345.156 366.368 341.85 363.929 339.411C361.49 336.972 358.184 335.6 354.735 335.596L15.0093 335.596Z" fill="#3F3D56" fill-opacity="0.53"/>
<path id="Vector_8" d="M36.8161 376.186C44.0696 376.186 49.9498 370.306 49.9498 363.053C49.9498 355.799 44.0696 349.919 36.8161 349.919C29.5625 349.919 23.6824 355.799 23.6824 363.053C23.6824 370.306 29.5625 376.186 36.8161 376.186Z" fill="#83B4ED" fill-opacity="0.53"/>
<path id="Vector_9" d="M339.412 435.726H30.332C29.4114 435.727 28.4997 435.546 27.6489 435.195C26.7981 434.843 26.0249 434.328 25.3736 433.677C24.7222 433.027 24.2055 432.254 23.853 431.404C23.5004 430.553 23.319 429.642 23.319 428.721C23.319 427.801 23.5004 426.889 23.853 426.039C24.2055 425.188 24.7222 424.416 25.3736 423.765C26.0249 423.115 26.7981 422.599 27.6489 422.247C28.4997 421.896 29.4114 421.715 30.332 421.716H339.412C341.27 421.716 343.051 422.454 344.365 423.768C345.679 425.082 346.417 426.863 346.417 428.721C346.417 430.579 345.679 432.361 344.365 433.674C343.051 434.988 341.27 435.726 339.412 435.726Z" fill="#83B4ED" fill-opacity="0.53"/>
<path id="Vector_10" d="M238.72 405.956H30.332C29.4114 405.957 28.4997 405.777 27.6489 405.425C26.7981 405.074 26.0249 404.558 25.3736 403.907C24.7222 403.257 24.2055 402.484 23.853 401.634C23.5004 400.783 23.319 399.872 23.319 398.951C23.319 398.031 23.5004 397.119 23.853 396.269C24.2055 395.418 24.7222 394.646 25.3736 393.995C26.0249 393.345 26.7981 392.829 27.6489 392.477C28.4997 392.126 29.4114 391.946 30.332 391.947H238.72C239.641 391.946 240.552 392.126 241.403 392.477C242.254 392.829 243.027 393.345 243.679 393.995C244.33 394.646 244.847 395.418 245.199 396.269C245.552 397.119 245.733 398.031 245.733 398.951C245.733 399.872 245.552 400.783 245.199 401.634C244.847 402.484 244.33 403.257 243.679 403.907C243.027 404.558 242.254 405.074 241.403 405.425C240.552 405.777 239.641 405.957 238.72 405.956Z" fill="#83B4ED" fill-opacity="0.53"/>
</g>
<g id="primaryText">
<path id="Vector_11" d="M536.843 342.357C536.22 342.357 535.605 342.226 535.035 341.974C534.466 341.722 533.955 341.354 533.536 340.893L483.914 286.76C483.351 286.147 482.667 285.657 481.905 285.322C481.143 284.987 480.32 284.813 479.488 284.812H217.268C213.289 284.808 209.474 283.225 206.66 280.411C203.846 277.598 202.264 273.783 202.259 269.803V175.241C202.264 171.261 203.846 167.446 206.66 164.633C209.474 161.819 213.289 160.236 217.268 160.231H556.994C560.973 160.236 564.788 161.819 567.602 164.632C570.416 167.446 571.998 171.261 572.003 175.241V269.803C571.998 273.783 570.416 277.598 567.602 280.411C564.788 283.225 560.973 284.808 556.994 284.812H547.362C545.77 284.814 544.244 285.448 543.118 286.573C541.993 287.699 541.359 289.225 541.358 290.817V337.851C541.362 338.759 541.089 339.646 540.576 340.396C540.064 341.145 539.335 341.721 538.488 342.046C537.963 342.251 537.406 342.357 536.843 342.357V342.357ZM217.268 162.231C213.819 162.235 210.513 163.607 208.074 166.046C205.635 168.485 204.263 171.792 204.259 175.241V269.803C204.263 273.252 205.635 276.559 208.074 278.998C210.513 281.437 213.819 282.809 217.268 282.812H479.488C480.598 282.814 481.695 283.045 482.71 283.492C483.726 283.939 484.638 284.591 485.388 285.408L535.01 339.541C535.351 339.913 535.796 340.173 536.287 340.288C536.778 340.402 537.292 340.365 537.762 340.183C538.232 340 538.636 339.679 538.921 339.263C539.205 338.847 539.358 338.355 539.358 337.851V290.817C539.36 288.695 540.204 286.66 541.705 285.16C543.205 283.659 545.24 282.815 547.362 282.812H556.994C560.443 282.809 563.749 281.437 566.188 278.998C568.627 276.559 569.999 273.252 570.003 269.803V175.241C569.999 171.792 568.627 168.485 566.188 166.046C563.749 163.607 560.443 162.235 556.994 162.231L217.268 162.231Z" fill="#636366"/>
<path id="Vector_12" d="M239.075 201.946C246.329 201.946 252.209 196.066 252.209 188.812C252.209 181.558 246.329 175.678 239.075 175.678C231.822 175.678 225.941 181.558 225.941 188.812C225.941 196.066 231.822 201.946 239.075 201.946Z" fill="#4E96EC"/>
<path id="Vector_13" d="M541.671 261.485H232.591C230.733 261.485 228.952 260.747 227.638 259.434C226.324 258.12 225.586 256.338 225.586 254.481C225.586 252.623 226.324 250.841 227.638 249.528C228.952 248.214 230.733 247.476 232.591 247.476H541.671C543.529 247.476 545.31 248.214 546.624 249.528C547.938 250.841 548.676 252.623 548.676 254.481C548.676 256.338 547.938 258.12 546.624 259.434C545.31 260.747 543.529 261.485 541.671 261.485V261.485Z" fill="#83B4ED"/>
<path id="Vector_14" d="M440.979 231.715H232.591C231.671 231.717 230.759 231.536 229.908 231.185C229.057 230.833 228.284 230.317 227.633 229.667C226.981 229.016 226.465 228.244 226.112 227.393C225.76 226.543 225.578 225.631 225.578 224.711C225.578 223.79 225.76 222.879 226.112 222.028C226.465 221.178 226.981 220.405 227.633 219.755C228.284 219.104 229.057 218.588 229.908 218.237C230.759 217.885 231.671 217.705 232.591 217.706H440.979C441.9 217.705 442.812 217.885 443.662 218.237C444.513 218.588 445.286 219.104 445.938 219.755C446.589 220.405 447.106 221.178 447.458 222.028C447.811 222.879 447.992 223.79 447.992 224.711C447.992 225.631 447.811 226.543 447.458 227.393C447.106 228.244 446.589 229.016 445.938 229.667C445.286 230.317 444.513 230.833 443.662 231.185C442.812 231.536 441.9 231.717 440.979 231.715Z" fill="#83B4ED"/>
</g>
<path id="Vector_15" d="M670.29 233.862C683.855 233.862 694.851 222.865 694.851 209.301C694.851 195.736 683.855 184.74 670.29 184.74C656.725 184.74 645.729 195.736 645.729 209.301C645.729 222.865 656.725 233.862 670.29 233.862Z" fill="#FFB8B8"/>
<path id="Vector_16" d="M641.436 547.373L629.177 547.372L623.344 500.084L641.439 500.085L641.436 547.373Z" fill="#FFB8B8"/>
<path id="Vector_17" d="M644.563 559.257L605.032 559.256V558.756C605.032 556.735 605.43 554.734 606.204 552.867C606.977 551.001 608.11 549.304 609.539 547.876C610.968 546.447 612.664 545.314 614.531 544.54C616.398 543.767 618.398 543.369 620.419 543.369H620.42L644.564 543.37L644.563 559.257Z" fill="#2F2E41"/>
<path id="Vector_18" d="M678.436 560.373L666.177 560.372L664.479 514.214L678.439 513.085L678.436 560.373Z" fill="#FFB8B8"/>
<path id="Vector_19" d="M681.563 572.257L642.032 572.256V571.756C642.032 569.735 642.43 567.734 643.204 565.867C643.977 564.001 645.11 562.304 646.539 560.876C647.968 559.447 649.664 558.314 651.531 557.54C653.398 556.767 655.398 556.369 657.419 556.369H657.42L681.564 556.37L681.563 572.257Z" fill="#2F2E41"/>
<path id="Vector_20" d="M674.949 551.743L665.403 550.619C664.32 550.489 663.321 549.972 662.59 549.162C661.86 548.352 661.447 547.305 661.429 546.215L659.64 421.876C659.634 421.524 659.506 421.186 659.276 420.919C659.046 420.652 658.73 420.475 658.383 420.418C658.036 420.361 657.68 420.428 657.377 420.607C657.074 420.786 656.843 421.066 656.726 421.398L643.48 458.797L644.428 528.899C644.444 530.056 644.013 531.175 643.226 532.022C642.438 532.87 641.354 533.382 640.199 533.451L627.735 533.981C626.595 534.045 625.473 533.677 624.593 532.949C623.713 532.221 623.141 531.188 622.991 530.056L616.481 450.755L616.477 450.705L626.354 367.886L700.537 373.253L679.944 547.802C679.814 548.896 679.287 549.903 678.465 550.635C677.642 551.367 676.579 551.773 675.478 551.775C675.301 551.775 675.125 551.764 674.949 551.743Z" fill="#2F2E41"/>
<path id="Vector_21" d="M626.671 375.228C626.005 374.872 625.44 374.354 625.028 373.721C624.616 373.089 624.371 372.362 624.316 371.61C624.316 371.61 630.987 330.125 633.431 329.347L628.083 284.984C627.442 279.573 627.889 274.088 629.397 268.853C630.904 263.617 633.443 258.735 636.863 254.493C640.157 250.379 644.25 246.974 648.896 244.485C653.542 241.996 658.645 240.474 663.895 240.011C664.643 239.944 665.386 239.892 666.125 239.857C672.455 239.518 678.772 240.712 684.541 243.338C690.309 245.963 695.359 249.943 699.259 254.939C703.306 259.977 706.075 265.918 707.332 272.257C708.589 278.595 708.296 285.144 706.479 291.345L703.479 301.784V374.74C703.476 375.453 703.306 376.154 702.983 376.788C702.659 377.423 702.192 377.973 701.617 378.394C692.276 385.249 681.72 387.673 671.462 387.673C652.051 387.673 633.705 378.993 626.671 375.228Z" fill="url(#paint0_linear_1_2)"/>
<g id="extendedArm">
<path id="Vector_22" d="M541.536 360.359C541.836 358.92 542.449 357.564 543.329 356.387C544.21 355.21 545.338 354.24 546.634 353.546C547.93 352.853 549.363 352.451 550.831 352.371C552.299 352.291 553.766 352.533 555.13 353.081L578.59 326.125L583.572 344.014L560.531 366.869C559.458 369.1 557.605 370.859 555.321 371.814C553.038 372.769 550.483 372.853 548.142 372.051C545.801 371.248 543.835 369.615 542.617 367.46C541.4 365.305 541.015 362.778 541.536 360.359V360.359Z" fill="#FFB8B8"/>
<path id="Vector_23" d="M569.081 361.877L556.179 352.229C555.673 351.851 555.252 351.37 554.944 350.818C554.636 350.266 554.448 349.656 554.391 349.026C554.335 348.397 554.412 347.762 554.617 347.165C554.822 346.567 555.151 346.019 555.582 345.557L632.445 263.082C634.912 260.458 638.239 258.805 641.821 258.425C645.403 258.044 649.002 258.96 651.966 261.007L651.967 261.007C653.772 262.266 655.279 263.908 656.378 265.815C657.477 267.723 658.142 269.849 658.326 272.043C658.51 274.237 658.208 276.444 657.441 278.508C656.675 280.572 655.463 282.441 653.892 283.983L574.928 361.485C574.234 362.173 573.334 362.614 572.366 362.742C571.398 362.87 570.414 362.677 569.566 362.194C569.398 362.098 569.236 361.993 569.081 361.877V361.877Z" fill="url(#paint1_linear_1_2)"/>
</g>
<path id="Vector_24" d="M667.83 350.957C668.394 349.6 669.249 348.382 670.334 347.391C671.419 346.399 672.709 345.658 674.112 345.218C675.515 344.779 676.997 344.653 678.454 344.848C679.911 345.044 681.308 345.557 682.545 346.35L710.631 324.257L712.181 342.762L685.272 360.905C683.801 362.896 681.651 364.277 679.229 364.788C676.808 365.3 674.282 364.905 672.132 363.678C669.982 362.452 668.357 360.48 667.564 358.135C666.771 355.791 666.866 353.237 667.83 350.957V350.957Z" fill="#FFB8B8"/>
<path id="Vector_25" d="M692.969 359.582C692.226 359.351 691.555 358.93 691.025 358.36C690.495 357.79 690.123 357.091 689.946 356.333L687.109 344.417C686.901 343.571 686.946 342.683 687.24 341.863C687.533 341.042 688.062 340.327 688.759 339.805L707.848 319.16L679.769 275.865C677.644 273.248 676.446 270 676.363 266.63C676.279 263.26 677.315 259.958 679.307 257.238C680.896 255.072 683.029 253.364 685.491 252.287C687.952 251.211 690.654 250.804 693.323 251.108C695.993 251.412 698.534 252.416 700.691 254.018C702.847 255.621 704.541 257.764 705.602 260.233L731.706 311.043C734.301 316.091 734.949 321.918 733.525 327.412C732.101 332.907 728.705 337.686 723.985 340.838L697.309 358.658C696.492 359.389 695.434 359.794 694.338 359.795C693.873 359.794 693.412 359.723 692.969 359.582V359.582Z" fill="url(#paint2_linear_1_2)"/>
<path id="Vector_26" d="M688.49 231.258C687.911 231.605 687.26 231.815 686.587 231.87C685.914 231.925 685.238 231.825 684.61 231.577C683.982 231.329 683.42 230.94 682.967 230.44C682.514 229.94 682.182 229.342 681.996 228.693L681.981 228.632C681.481 226.588 681.876 224.449 682.005 222.349C682.134 220.249 681.916 217.944 680.478 216.409C677.798 213.546 673.064 215.096 669.207 214.389C666.947 213.898 664.943 212.599 663.572 210.737C662.2 208.875 661.554 206.577 661.754 204.272C661.807 203.836 661.89 203.399 661.985 202.961C662.22 201.854 662.195 200.707 661.912 199.611C661.63 198.515 661.097 197.499 660.355 196.644C659.614 195.788 658.684 195.116 657.64 194.68C656.595 194.244 655.463 194.057 654.334 194.132C650.44 194.375 646.243 195.578 643.005 192.71C641.818 191.579 640.99 190.123 640.625 188.524C640.259 186.925 640.373 185.253 640.952 183.719C642.763 178.398 647.949 175.59 653.087 174.034C659.441 172.161 666.133 171.727 672.677 172.765C679.22 173.803 685.449 176.286 690.913 180.033C694.175 182.307 697.226 185.169 698.632 188.889C700.037 192.609 699.394 197.316 696.283 199.793C698.718 202.344 700.44 205.49 701.277 208.916C702.113 212.342 702.034 215.928 701.048 219.314C699.532 224.294 692.194 229.1 688.49 231.258Z" fill="#2F2E41"/>
<path id="Vector_27" d="M842.73 572C842.729 572.265 842.624 572.519 842.436 572.706C842.249 572.894 841.995 572.999 841.73 573H460.73C460.465 573 460.21 572.895 460.023 572.707C459.835 572.52 459.73 572.265 459.73 572C459.73 571.735 459.835 571.48 460.023 571.293C460.21 571.105 460.465 571 460.73 571H841.73C841.995 571.001 842.249 571.106 842.436 571.294C842.624 571.481 842.729 571.735 842.73 572V572Z" fill="#3F3D56"/>
</g>
<defs>
<linearGradient id="paint0_linear_1_2" x1="666.207" y1="239.8" x2="666.207" y2="387.673" gradientUnits="userSpaceOnUse">
<stop stop-color="#4E96EC"/>
<stop offset="1" stop-color="#A39CCE"/>
</linearGradient>
<linearGradient id="paint1_linear_1_2" x1="606.376" y1="258.34" x2="606.376" y2="362.781" gradientUnits="userSpaceOnUse">
<stop stop-color="#4E96EC"/>
<stop offset="1" stop-color="#A39CCE"/>
</linearGradient>
<linearGradient id="paint2_linear_1_2" x1="705.311" y1="251.01" x2="705.311" y2="359.795" gradientUnits="userSpaceOnUse">
<stop stop-color="#4E96EC"/>
<stop offset="1" stop-color="#A39CCE"/>
</linearGradient>
<clipPath id="clip0_1_2">
<rect width="842.73" height="573" fill="white"/>
</clipPath>
</defs>
</svg>
